
<svg xmlns="http://www.w3.org/2000/svg" viewBox="0 0 512 512">
  <circle cx="256" cy="256" r="240" fill="#e53e3e" />
  <path d="M256 16C123.452 16 16 123.452 16 256s107.452 240 240 240 240-107.452 240-240S388.548 16 256 16zm0 48c106.039 0 192 85.961 192 192s-85.961 192-192 192S64 362.039 64 256 149.961 64 256 64zm0 32c-88.366 0-160 71.634-160 160s71.634 160 160 160 160-71.634 160-160S344.366 96 256 96z" fill="#e53e3e"/>
  <path d="M399.959 168.275c-1.475-5.599-3.219-11.099-5.17-16.485-3.246 1.786-6.83 2.785-10.582 2.785-12.204 0-22.107-9.903-22.107-22.107 0-3.753.999-7.336 2.785-10.582-5.385-1.949-10.886-3.694-16.485-5.17-3.897 6.694-11.148 11.196-19.449 11.196-8.3 0-15.553-4.502-19.45-11.196a202.04 202.04 0 00-16.485 5.169c1.786 3.246 2.785 6.828 2.785 10.582 0 12.204-9.903 22.107-22.107 22.107-3.753 0-7.336-.999-10.582-2.785-1.95 5.385-3.694 10.886-5.17 16.485 6.694 3.897 11.196 11.149 11.196 19.45s-4.502 15.551-11.196 19.449a202.177 202.177 0 005.17 16.485c3.246-1.786 6.828-2.785 10.582-2.785 12.204 0 22.107 9.903 22.107 22.107 0 3.753-.999 7.336-2.785 10.582 5.385 1.949 10.886 3.694 16.485 5.17 3.897-6.694 11.149-11.196 19.45-11.196 8.3 0 15.552 4.502 19.449 11.196 5.599-1.475 11.099-3.22 16.485-5.17-1.786-3.246-2.785-6.828-2.785-10.582 0-12.204 9.903-22.107 22.107-22.107 3.753 0 7.336.999 10.582 2.785 1.95-5.385 3.694-10.886 5.17-16.485-6.694-3.897-11.196-11.148-11.196-19.449s4.502-15.553 11.196-19.45z" fill="#e53e3e" stroke="#FFF" stroke-width="2"/>
</svg>
